<svg width="136" height="30" viewBox="0 0 136 30" fill="none" xmlns="http://www.w3.org/2000/svg">
<path d="M19.036 0.231404C19.5602 0.609644 19.815 1.21534 20.0856 1.8287C20.1521 2.55068 20.1216 3.1321 19.7474 3.74546C19.2851 4.12881 19.2851 4.12881 18.9582 4.12881C18.9593 4.22721 18.9593 4.3256 18.9604 4.42655C18.9706 6.46215 18.9559 8.48624 18.8455 10.518C19.9943 10.5448 21.0123 10.5512 22.1149 10.1347C22.4373 9.42545 22.4565 8.63192 22.5241 7.84988C22.55 7.62881 22.55 7.62881 22.576 7.40136C22.6628 6.59888 22.6628 6.59888 22.3753 5.89862C22.2152 5.74911 22.0506 5.60599 21.8815 5.47054C21.461 5.09997 21.452 4.58245 21.364 4.02147C21.2998 3.34294 21.3201 2.85864 21.6008 2.23633C22.1532 1.70092 22.833 1.52458 23.5523 1.5808C24.1081 1.68814 24.5083 1.90921 24.8533 2.43312C25.1385 2.98515 25.2242 3.45028 25.1295 4.08153C24.9367 4.78051 24.621 5.47054 24.0788 5.88456C23.7755 6.1478 23.7755 6.1478 23.7473 6.55798C23.7529 6.70366 23.7574 6.85061 23.7631 7.00267C23.7665 7.16368 23.7699 7.32597 23.7732 7.49208C23.7789 7.66076 23.7856 7.82816 23.7924 8.00194C23.8646 10.2573 23.8646 10.2573 23.2603 11.0432C22.4418 11.769 21.6301 11.9466 20.6245 12.1447C20.5433 12.1613 20.4621 12.1779 20.3787 12.1945C20.2197 12.2265 20.0596 12.2559 19.8996 12.284C19.4757 12.3658 19.2175 12.422 18.9582 12.8181C18.9097 13.1261 18.9097 13.1261 18.9199 13.4775C18.9199 13.6142 18.9199 13.7509 18.9199 13.8915C18.9221 14.041 18.9232 14.1905 18.9255 14.3451C18.9255 14.5036 18.9266 14.6608 18.9266 14.823C18.9278 15.1668 18.93 15.5092 18.9334 15.853C18.9379 16.3948 18.9402 16.9366 18.9413 17.4797C18.9447 18.6297 18.9514 19.7811 18.9582 20.9324C18.9661 22.1745 18.9728 23.4178 18.9762 24.6599C18.9785 25.1991 18.9819 25.7383 18.9864 26.2776C18.9898 26.6916 18.9898 27.1056 18.992 27.5197C18.9931 27.6692 18.9954 27.8187 18.9965 27.9733C18.9965 28.11 18.9965 28.2467 18.9965 28.3873C18.9976 28.5061 18.9988 28.625 18.9988 28.7477C18.9582 29.0467 18.9582 29.0467 18.8026 29.2792C18.62 29.43 18.62 29.43 18.3652 29.439C18.275 29.4236 18.1848 29.407 18.0912 29.3904C18.001 29.3751 17.9097 29.3597 17.8162 29.3431C17.7463 29.3304 17.6775 29.3163 17.6053 29.3022C17.3077 28.4141 17.3539 27.5235 17.3618 26.5856C17.3629 26.4067 17.3629 26.229 17.3641 26.0501C17.3652 25.5812 17.3686 25.1135 17.3708 24.6445C17.3765 23.897 17.3799 23.1494 17.3821 22.4032C17.3832 22.1438 17.3855 21.8857 17.3866 21.6275C17.4092 20.1555 17.4092 20.1555 17.2671 18.6962C17.1927 18.654 17.1183 18.6118 17.0416 18.5684C17.1161 18.5684 17.1905 18.5684 17.2671 18.5684C17.3055 18.0279 17.3427 17.4873 17.3799 16.9468C17.3911 16.796 17.4013 16.6452 17.4126 16.4906C17.5073 15.0863 17.5478 13.7062 17.3799 12.307C17.1927 12.2904 17.1927 12.2904 17.0011 12.2738C15.5806 12.1294 14.6212 11.8227 13.6031 10.6292C13.3393 10.2561 13.3066 9.92509 13.2999 9.46251C13.2987 9.3539 13.2965 9.24528 13.2942 9.13283C13.2931 9.01527 13.292 8.89771 13.2897 8.77631C13.2863 8.59486 13.2863 8.59486 13.2841 8.41085C13.2751 7.89333 13.2672 7.3758 13.2593 6.85828C13.2536 6.48004 13.2469 6.10307 13.2401 5.72611C13.239 5.60855 13.2379 5.48971 13.2356 5.36959C13.2345 5.2597 13.2322 5.15108 13.23 5.03991C13.2288 4.94407 13.2277 4.84824 13.2255 4.74856C13.221 4.50066 13.221 4.50066 13.0958 4.2566C13.0101 4.20165 12.9244 4.14542 12.8354 4.0892C12.4667 3.82596 12.2942 3.67135 12.0812 3.23433C11.9899 2.41523 11.9763 1.62169 12.4194 0.934215C12.841 0.43458 13.1713 0.202014 13.77 0.158567C14.2942 0.179013 14.6629 0.286351 15.0405 0.702927C15.4295 1.41085 15.6775 2.0076 15.576 2.85097C15.1905 3.97164 15.1905 3.97164 14.7812 4.33327C14.4633 4.77668 14.4949 5.20986 14.4983 5.75806C14.4971 5.8654 14.496 5.97401 14.496 6.08646C14.4949 6.3152 14.4949 6.54393 14.4971 6.77266C14.4983 7.12279 14.4949 7.47164 14.4904 7.82049C14.4904 8.04411 14.4904 8.26646 14.4904 8.4888C14.4893 8.59358 14.4881 8.69709 14.4859 8.80442C14.4938 9.33728 14.5197 9.56091 14.8128 9.99793C15.4115 10.5052 15.8906 10.5538 16.6256 10.5333C16.7102 10.5333 16.7936 10.5321 16.8793 10.5308C17.0834 10.527 17.2885 10.5231 17.4926 10.518C17.4971 9.62224 17.4949 8.72648 17.4881 7.83071C17.487 7.52531 17.487 7.22118 17.4881 6.91578C17.4892 6.47748 17.4858 6.03918 17.4813 5.60088C17.4836 5.46543 17.4847 5.32998 17.487 5.18942C17.4858 4.48661 17.4858 4.48661 17.2051 3.88475C16.9988 3.68412 16.9988 3.68412 16.7823 3.52823C16.4949 3.27777 16.39 2.99026 16.3201 2.59413C16.2852 1.71625 16.5591 1.10161 17.0416 0.42308C17.682 -0.113613 18.3269 -0.0957229 19.036 0.231404Z" fill="#7079D3"/>
<path d="M3.28776 10.5179C3.51324 10.7338 3.51324 10.7338 3.62598 11.029C3.4952 11.5912 3.2934 11.797 2.86499 12.0998C2.20999 12.5956 1.73761 13.0569 1.44111 13.8965C1.26524 15.0376 1.40729 15.7774 1.94956 16.7537C2.27876 17.2521 2.65981 17.4974 3.17502 17.6737C3.49633 17.7236 3.81087 17.7249 4.13442 17.721C4.228 17.721 4.32044 17.7223 4.41627 17.7223C4.61582 17.7236 4.81649 17.7236 5.01604 17.7223C5.33396 17.721 5.65188 17.7223 5.96867 17.7249C6.8717 17.73 7.77474 17.73 8.67777 17.73C9.23131 17.73 9.78486 17.7325 10.3384 17.7364C10.6496 17.7376 10.9607 17.7351 11.2719 17.7338C12.5774 17.7376 13.7453 17.8616 14.8028 18.8264C15.8073 20.039 15.9381 21.2236 15.9415 22.7992C15.9426 23.0701 15.946 23.341 15.9494 23.6119C15.9561 24.5306 16.0057 25.852 15.7453 26.6187C15.9979 27.7048 15.4522 28.161 15.4635 29.1743C15.2403 29.3008 15.2403 29.3008 15.0125 29.4299C14.6811 29.2305 14.6811 29.2305 14.3361 28.9187C14.2448 28.4983 14.2448 28.4983 14.2234 28.0166C14.1535 27.0569 13.8829 26.4027 13.4342 25.5963C13.3395 25.3944 13.2459 25.1926 13.1523 24.9894C12.8062 24.2853 12.4184 23.6106 11.7431 23.2962C11.4162 23.249 11.4162 23.249 11.0577 23.2438C10.9269 23.2387 10.7961 23.2336 10.662 23.2285C10.5255 23.2247 10.3891 23.2208 10.2493 23.217C10.1118 23.2119 9.97426 23.2068 9.83221 23.2017C9.49174 23.1889 9.1524 23.1787 8.81193 23.1685C8.7657 23.286 8.71948 23.4036 8.671 23.525C8.47822 23.9249 8.34519 24.1013 8.02276 24.3581C7.9461 24.4207 7.86944 24.4834 7.79052 24.5485C7.34408 24.8616 6.95739 24.8603 6.44443 24.8296C6.11298 24.7019 6.11298 24.7019 5.88074 24.5741C5.88074 24.4897 5.88074 24.4054 5.88074 24.3185C5.81535 24.2917 5.74996 24.2661 5.68345 24.2393C5.31592 23.9837 5.175 23.732 4.97883 23.2962C4.86609 22.5244 5.00814 21.9379 5.31705 21.2517C5.39145 21.2517 5.46586 21.2517 5.54252 21.2517C5.54252 21.1674 5.54252 21.083 5.54252 20.9961C6.18851 20.6141 6.73304 20.5144 7.45907 20.6128C7.92468 20.7917 8.08815 20.9028 8.33505 21.3884C8.56052 21.7015 8.68002 21.759 9.03628 21.8306C9.46243 21.8536 9.88632 21.8561 10.3125 21.851C12.5672 21.8421 12.5672 21.8421 13.3282 22.6969C13.9021 23.3831 14.2234 24.2329 14.5616 25.0852C14.636 25.0852 14.7104 25.0852 14.787 25.0852C14.7949 24.6162 14.7916 24.1486 14.787 23.6796C14.787 23.5377 14.787 23.5377 14.787 23.3934C14.8164 21.7501 14.8164 21.7501 14.2031 20.3138C13.4669 19.5509 12.8513 19.3183 11.8615 19.3222C11.7442 19.3222 11.7442 19.3222 11.6247 19.3234C11.4556 19.3234 11.2877 19.3247 11.1185 19.3247C10.8491 19.3273 10.5797 19.3273 10.3113 19.3285C9.64281 19.3298 8.97314 19.3337 8.30461 19.3362C7.74092 19.3388 7.1761 19.3413 6.61241 19.3426C6.34973 19.3426 6.08705 19.3439 5.82437 19.3464C2.4535 19.3592 2.4535 19.3592 1.11192 18.0622C0.274273 17.0348 -0.010954 15.9934 0.000319759 14.621C0.0623257 13.2435 0.514405 12.2532 1.37121 11.2846C1.9676 10.7709 2.52114 10.4041 3.28776 10.5179Z" fill="#7079D3"/>
<path d="M33.1633 10.6465C34.0652 10.672 34.6582 10.9366 35.2997 11.6624C36.1204 12.7511 36.2692 13.9254 36.2399 15.3272C36.1373 16.6804 35.6694 17.5813 34.7856 18.4784C34.0855 19.0457 33.497 19.2847 32.6379 19.2693C32.4981 19.2706 32.4981 19.2706 32.3561 19.2706C32.1554 19.2719 31.9547 19.2719 31.7541 19.2706C31.4361 19.2681 31.1182 19.2693 30.8003 19.2706C30.01 19.2745 29.2197 19.2732 28.4305 19.2706C27.762 19.2706 27.0935 19.2706 26.4249 19.2745C26.1126 19.2757 25.8004 19.2732 25.4892 19.2719C24.0078 19.2502 24.0078 19.2502 22.7282 20.0182C22.0732 20.8104 22.0834 21.7599 22.1014 22.7783C22.1014 22.8895 22.1025 23.0019 22.1037 23.1169C22.1071 23.3904 22.1104 23.6626 22.115 23.936C22.5062 23.7878 22.5546 23.6447 22.7654 23.2664C23.2389 22.4997 23.7485 22.0039 24.5636 21.8237C24.9526 21.7611 25.3212 21.7496 25.7147 21.7509C25.9323 21.7522 25.9323 21.7522 26.1555 21.7522C26.3066 21.7535 26.4587 21.7547 26.6109 21.756C26.7643 21.756 26.9187 21.7573 27.0732 21.7573C27.4497 21.7586 27.8263 21.7611 28.2028 21.7637C28.2502 21.6474 28.2502 21.6474 28.2975 21.5298C28.5354 21.0264 28.8646 20.6967 29.3426 20.5318C29.9604 20.4207 30.4801 20.5076 31.0213 20.8692C31.4914 21.4021 31.6718 21.8927 31.7473 22.6339C31.7293 23.4147 31.3302 23.9501 30.8803 24.5034C30.4463 24.7832 30.0528 24.8561 29.5557 24.8305C29.0822 24.6375 28.7383 24.3871 28.4283 23.936C28.3482 23.6396 28.2727 23.3418 28.2028 23.0415C27.7349 23.0517 27.2682 23.0658 26.8003 23.0811C26.6696 23.085 26.5377 23.0875 26.4024 23.0901C25.3494 23.1271 24.4464 23.2511 23.6516 24.0881C23.3787 24.4305 23.16 24.8037 22.9447 25.1947C22.7914 25.4694 22.7914 25.4694 22.6155 25.6981C22.4126 26.0521 22.4103 26.2719 22.4069 26.6923C22.4047 26.8278 22.4024 26.9632 22.4002 27.1038C22.3979 27.3887 22.3957 27.6737 22.3934 27.9599C22.3912 28.0954 22.3889 28.2295 22.3866 28.3701C22.3855 28.4928 22.3844 28.6167 22.3833 28.7445C22.3697 28.8442 22.3551 28.9451 22.3404 29.0474C22.0022 29.3029 22.0022 29.3029 21.7136 29.2876C21.4385 29.1751 21.4385 29.1751 21.3156 28.9554C20.6809 27.16 20.7159 24.8369 20.699 22.9137C20.6956 22.7451 20.6922 22.5777 20.6899 22.4039C20.6933 21.1554 20.9233 20.0552 21.5727 19.024C22.4938 18.0733 23.6538 17.7628 24.8691 17.7679C25.0044 17.7666 25.0044 17.7666 25.1431 17.7653C25.337 17.764 25.532 17.764 25.726 17.764C26.0349 17.7628 26.3426 17.7602 26.6504 17.7577C27.5264 17.7513 28.4012 17.7474 29.2772 17.7436C29.8138 17.7423 30.3505 17.7385 30.8871 17.7334C31.0912 17.7321 31.2952 17.7308 31.4993 17.7308C31.7845 17.7308 32.0697 17.7283 32.3549 17.7257C32.4384 17.727 32.5218 17.727 32.6086 17.727C33.2343 17.718 33.7101 17.566 34.1588 17.0574C34.7969 16.0492 34.9524 15.2109 34.8544 13.9689C34.7303 13.5382 34.7303 13.5382 34.5161 13.2022C34.4507 13.0731 34.3865 12.944 34.3188 12.8111C34.055 12.4201 33.8048 12.1965 33.444 11.9345C33.276 11.7965 33.276 11.7965 33.1633 11.541C33.1588 11.2432 33.1588 10.9442 33.1633 10.6465Z" fill="#7079D3"/>
<path d="M27.78 3.63385C28.2073 3.96353 28.5353 4.33027 28.745 4.87974C28.8082 5.69372 28.833 6.23681 28.4282 6.94089C28.2569 7.12874 28.0844 7.30763 27.8984 7.47887C27.5105 8.08201 27.621 9.04422 27.6244 9.76748C27.6255 9.87737 27.6255 9.98599 27.6267 10.0984C27.6323 10.9444 27.6481 11.789 27.674 12.6349C27.6785 12.8062 27.6785 12.8062 27.6819 12.9825C27.6875 13.1422 27.6875 13.1422 27.6943 13.3058C27.6966 13.4004 27.6999 13.4937 27.7033 13.5908C27.7653 13.9077 27.8668 14.0265 28.09 14.2246C28.6312 14.2821 29.1125 14.153 29.5973 13.8885C30.0336 13.4425 30.3098 13.0183 30.3808 12.3538C30.3887 11.9781 30.3842 11.605 30.373 11.2293C30.3707 11.099 30.3684 10.9686 30.3673 10.8345C30.3617 10.5163 30.3538 10.1981 30.3448 9.87993C30.276 9.84415 30.2061 9.80837 30.1351 9.77131C29.7055 9.50807 29.4823 9.11706 29.3301 8.60209C29.2433 7.78171 29.3301 7.09424 29.7811 6.42976C30.2196 5.95696 30.6492 5.75123 31.2534 5.718C31.8205 5.75506 32.1475 5.91223 32.5995 6.30198C33.0606 6.89234 33.17 7.44948 33.1632 8.21873C33.0899 8.83465 32.9614 9.12344 32.5432 9.50424C32.4744 9.55791 32.4056 9.61286 32.3357 9.6678C31.8386 10.2288 31.8983 11.0249 31.8882 11.7635C31.851 12.9148 31.6379 13.7007 30.9716 14.5913C30.2986 15.2238 29.8341 15.5216 28.9649 15.5126C28.8476 15.5114 28.7292 15.5101 28.6086 15.5101C28.4181 15.5075 28.4181 15.5075 28.223 15.505C27.9536 15.5037 27.683 15.5024 27.4125 15.5011C26.9874 15.4973 26.5624 15.4935 26.1374 15.4896C25.727 15.4858 25.3155 15.4832 24.9052 15.4807C24.7789 15.4794 24.6538 15.4781 24.5252 15.4756C23.1295 15.4424 23.1295 15.4424 21.8962 16.0532C21.8195 16.1656 21.7429 16.2793 21.6639 16.3969C21.5873 16.494 21.5106 16.5911 21.4317 16.6921C21.1972 17.0601 21.027 17.4332 20.8556 17.8434C20.762 18.0581 20.762 18.0581 20.6493 18.1859C20.4238 18.191 20.1983 18.191 19.9729 18.1859C19.7079 17.5853 19.8252 16.8135 19.9796 16.1886C20.2637 15.3325 20.7868 14.8124 21.5095 14.4316C22.1374 14.1364 22.7327 14.0776 23.4103 14.0559C23.5557 14.0508 23.7 14.0457 23.8499 14.0406C24.125 14.0329 24.125 14.0329 24.4046 14.024C24.9886 14.0061 25.5726 13.9869 26.1735 13.969C26.2107 11.9015 26.2479 9.8352 26.2862 7.7076C26.1374 7.62326 25.9886 7.53892 25.8353 7.45203C25.4474 7.08274 25.1938 6.69299 25.1182 6.11541C25.0799 5.22987 25.2242 4.56795 25.7225 3.87408C26.3437 3.34506 27.0663 3.354 27.78 3.63385Z" fill="#7079D3"/>
<path d="M10.3904 3.48943C10.8752 3.653 11.1424 3.9469 11.4547 4.39925C11.7038 4.97428 11.732 5.54803 11.6305 6.1729C11.44 6.6687 11.2021 7.0661 10.8357 7.41495C10.5528 7.79064 10.5494 8.00787 10.5313 8.49856C10.5223 8.73624 10.5223 8.73624 10.5133 8.97903C10.493 9.86968 10.4919 10.7603 10.4964 11.6523C10.4964 11.8401 10.4975 12.0292 10.4975 12.2184C10.4986 12.6733 10.5009 13.1295 10.5031 13.5844C11.3509 14.1147 12.4468 13.9997 13.3926 14.0227C14.582 14.0725 15.3238 14.5159 16.1401 15.5011C16.5042 16.0289 16.6496 16.4838 16.591 17.1623C16.405 17.2466 16.219 17.331 16.0273 17.4179C15.9529 17.331 15.8785 17.2441 15.8018 17.1546C15.5482 16.8697 15.29 16.5898 15.0262 16.3164C14.9574 16.2435 14.8875 16.1707 14.8165 16.0953C14.0206 15.436 13.3069 15.4526 12.3498 15.473C12.2134 15.4743 12.077 15.4756 11.936 15.4756C11.5009 15.4794 11.0657 15.4858 10.6294 15.4935C10.1954 15.4998 9.76133 15.505 9.32616 15.5088C9.05672 15.5113 8.78615 15.5152 8.5167 15.5203C7.59901 15.5292 6.63849 15.5267 5.88089 14.8622C5.88089 14.7779 5.76812 14.7574 5.76812 14.6705C5.60127 14.6066 5.71403 14.5427 5.54267 14.4788C5.54267 14.3945 5.42991 14.438 5.42991 14.3511C5.3555 14.3511 5.39386 14.2233 5.3172 14.2233C4.87752 13.6649 4.85271 13.1525 4.83017 12.4241C4.82566 12.2759 4.82115 12.1276 4.81664 11.9756C4.81213 11.8209 4.80762 11.6663 4.80311 11.5079C4.79747 11.352 4.79296 11.1961 4.78845 11.0351C4.77605 10.6492 4.76478 10.2645 4.75351 9.87863C4.59342 9.85563 4.59342 9.85563 4.43107 9.83135C4.07708 9.75084 4.07708 9.75084 3.82342 9.47994C3.46491 8.81291 3.3409 8.20466 3.45251 7.44051C3.62274 6.75176 4.0286 6.31985 4.52803 5.91733C4.99702 5.65154 5.63737 5.70648 6.13004 5.87516C6.3138 5.96589 6.49305 6.06811 6.67005 6.1729C6.67005 6.25723 6.72639 6.21379 6.72639 6.30068C6.8008 6.30068 6.81887 6.42846 6.89553 6.42846C7.20894 6.94471 7.34648 7.19005 7.34648 7.82642C7.19316 8.72474 6.87185 9.33938 6.2191 9.87863C6.05563 10.4345 6.11538 10.952 6.14131 11.5322C6.14808 11.7059 6.14807 11.7059 6.15371 11.8836C6.15822 11.9947 6.16386 12.1072 6.16837 12.2222C6.17288 12.3244 6.17739 12.4266 6.1819 12.5314C6.22248 12.8458 6.29689 13.0592 6.44458 13.3288C6.51898 13.371 6.48063 13.4131 6.55729 13.4566C6.55729 13.5409 6.67005 13.6253 6.67005 13.7121C7.00714 13.9319 7.24614 13.9984 7.63396 13.9933C7.72866 13.992 7.82449 13.9907 7.92257 13.9907C8.02065 13.9882 8.11874 13.9856 8.2202 13.983C8.32054 13.983 8.42087 13.9818 8.52347 13.9805C8.77036 13.9767 9.01613 13.9728 9.26303 13.9677C9.41297 13.5754 9.41297 13.5754 9.26979 13.132C9.14014 12.525 9.13338 11.9487 9.14014 11.329C9.14127 11.2293 9.1424 11.1284 9.14353 11.0261C9.14804 10.6057 9.15593 10.1853 9.16382 9.7649C9.16833 9.45566 9.17171 9.14643 9.17509 8.83719C9.17735 8.74263 9.18073 8.64679 9.18298 8.54968C9.192 8.03982 9.192 8.03982 8.99697 7.59385C8.93609 7.54657 8.87521 7.49929 8.81208 7.45073C8.27657 7.00988 7.97894 6.6342 7.8662 5.87516C7.81998 5.10846 7.96541 4.67782 8.39494 4.08874C9.01613 3.38848 9.53247 3.37698 10.3904 3.48943Z" fill="#7079D3"/>
<path d="M31.127 6.74023C31.5645 6.83096 31.7471 6.93702 32.0357 7.32293C32.1101 7.68072 32.1056 7.98741 32.0357 8.3452C31.8531 8.66466 31.8531 8.66466 31.5847 8.85634C31.2533 8.92789 31.2533 8.92789 30.9083 8.85634C30.5329 8.54199 30.3683 8.35926 30.2815 7.83406C30.383 7.2207 30.569 6.86163 31.127 6.74023Z" fill="url(#paint0_linear_1767_2)"/>
<path d="M18.3945 1.06235C18.7192 1.26936 18.7192 1.26936 18.9582 1.57349C19.0405 2.05779 18.9897 2.27502 18.7823 2.70821C18.5072 2.97911 18.5072 2.97911 18.1126 3.05067C17.7181 2.97911 17.7181 2.97911 17.443 2.77977C17.1995 2.34786 17.204 2.07696 17.2671 1.57349C17.576 1.04702 17.8522 0.961403 18.3945 1.06235Z" fill="url(#paint1_linear_1767_2)"/>
<path d="M23.5806 2.85079C23.9256 3.11785 24.0158 3.27119 24.0947 3.73761C24.0316 4.12862 24.0316 4.12862 23.8061 4.50431C23.4442 4.78543 23.3901 4.80077 22.982 4.74326C22.8444 4.70876 22.7069 4.67554 22.566 4.63976C22.3382 4.12351 22.3044 3.79 22.4532 3.23414C22.7881 2.81245 23.0947 2.77028 23.5806 2.85079Z" fill="url(#paint2_linear_1767_2)"/>
<path d="M5.4931 6.81152C5.88092 6.93931 5.88092 6.93931 6.1064 7.15526C6.26536 7.57312 6.23041 7.78651 6.1064 8.21715C5.85274 8.59283 5.85274 8.59283 5.54271 8.85607C5.21689 8.85607 5.05117 8.77684 4.77383 8.59283C4.55625 8.18903 4.56978 7.77501 4.6408 7.32266C4.89334 6.85369 5.00607 6.81152 5.4931 6.81152Z" fill="url(#paint3_linear_1767_2)"/>
<path d="M10.3901 4.64018C10.6155 4.89575 10.6155 4.89575 10.6505 5.39922C10.6415 5.71229 10.6279 5.89119 10.5028 6.17359C10.1353 6.38188 9.77114 6.38188 9.37542 6.30137C9.09358 6.09436 9.09358 6.09436 8.92447 5.79024C8.87149 5.37238 8.85119 5.13854 9.07216 4.79224C9.5186 4.43573 9.87824 4.5239 10.3901 4.64018Z" fill="url(#paint4_linear_1767_2)"/>
<path d="M30.2322 21.7621C30.5072 22.042 30.5072 22.042 30.6831 22.4011C30.6831 22.856 30.6482 23.0732 30.3731 23.408C30.054 23.5882 29.9064 23.638 29.5557 23.5511C29.2311 23.2163 29.2311 23.2163 28.992 22.7844C28.9842 22.3231 29.0281 22.1187 29.2953 21.7698C29.6617 21.5794 29.8522 21.619 30.2322 21.7621Z" fill="url(#paint5_linear_1767_2)"/>
<path d="M7.34651 21.763C7.64977 22.0429 7.67796 22.2205 7.73433 22.6575C7.68472 23.0408 7.68472 23.0408 7.50885 23.3526C7.23377 23.552 7.23377 23.552 6.83919 23.5597C6.37358 23.3999 6.22477 23.267 5.99365 22.7853C6.00154 22.4237 6.0658 22.2243 6.22589 21.9151C6.58102 21.6684 6.94291 21.6787 7.34651 21.763Z" fill="url(#paint6_linear_1767_2)"/>
<path d="M13.8921 1.44531C14.2709 1.59099 14.3837 1.68171 14.5618 2.08423C14.6182 2.39602 14.6182 2.39602 14.5618 2.72315C14.3149 3.09117 14.3149 3.09117 13.9981 3.36207C13.67 3.36207 13.5054 3.28412 13.2292 3.09117C13.0139 2.70398 13.0477 2.40114 13.0962 1.95645C13.3386 1.53221 13.4423 1.44531 13.8921 1.44531Z" fill="url(#paint7_linear_1767_2)"/>
<path d="M27.0331 4.64835C27.4142 4.76847 27.4142 4.76847 27.6396 5.15182C27.6442 5.40355 27.6442 5.40355 27.6103 5.67062C27.5957 5.80352 27.5957 5.80352 27.581 5.93897C27.5269 6.17409 27.5269 6.17409 27.3014 6.42966C26.8956 6.48971 26.6972 6.48588 26.3567 6.22137C26.1188 5.82779 26.1042 5.62078 26.174 5.15182C26.4345 4.69052 26.545 4.6394 27.0331 4.64835Z" fill="url(#paint8_linear_1767_2)"/>
<path d="M59.6 8.49215V22.4521H56.8V13.3721L53.06 22.4521H50.94L47.18 13.3721V22.4521H44.38V8.49215H47.56L52 18.8721L56.44 8.49215H59.6ZM63.7883 10.0521C63.2949 10.0521 62.8816 9.89881 62.5483 9.59215C62.2283 9.27215 62.0683 8.87881 62.0683 8.41215C62.0683 7.94548 62.2283 7.55881 62.5483 7.25215C62.8816 6.93215 63.2949 6.77215 63.7883 6.77215C64.2816 6.77215 64.6883 6.93215 65.0083 7.25215C65.3416 7.55881 65.5083 7.94548 65.5083 8.41215C65.5083 8.87881 65.3416 9.27215 65.0083 9.59215C64.6883 9.89881 64.2816 10.0521 63.7883 10.0521ZM65.1683 11.3721V22.4521H62.3683V11.3721H65.1683ZM67.2147 16.8721C67.2147 15.7521 67.4347 14.7588 67.8747 13.8921C68.328 13.0255 68.9414 12.3588 69.7147 11.8921C70.488 11.4255 71.348 11.1921 72.2947 11.1921C73.0147 11.1921 73.7014 11.3521 74.3547 11.6721C75.008 11.9788 75.528 12.3921 75.9147 12.9121V7.65215H78.7547V22.4521H75.9147V20.8121C75.568 21.3588 75.0814 21.7988 74.4547 22.1321C73.828 22.4655 73.1014 22.6321 72.2747 22.6321C71.3414 22.6321 70.488 22.3921 69.7147 21.9121C68.9414 21.4321 68.328 20.7588 67.8747 19.8921C67.4347 19.0121 67.2147 18.0055 67.2147 16.8721ZM75.9347 16.9121C75.9347 16.2321 75.8014 15.6521 75.5347 15.1721C75.268 14.6788 74.908 14.3055 74.4547 14.0521C74.0014 13.7855 73.5147 13.6521 72.9947 13.6521C72.4747 13.6521 71.9947 13.7788 71.5547 14.0321C71.1147 14.2855 70.7547 14.6588 70.4747 15.1521C70.208 15.6321 70.0747 16.2055 70.0747 16.8721C70.0747 17.5388 70.208 18.1255 70.4747 18.6321C70.7547 19.1255 71.1147 19.5055 71.5547 19.7721C72.008 20.0388 72.488 20.1721 72.9947 20.1721C73.5147 20.1721 74.0014 20.0455 74.4547 19.7921C74.908 19.5255 75.268 19.1521 75.5347 18.6721C75.8014 18.1788 75.9347 17.5921 75.9347 16.9121ZM86.5694 13.6721H84.6294V22.4521H81.7894V13.6721H80.5294V11.3721H81.7894V10.8121C81.7894 9.45215 82.176 8.45215 82.9494 7.81215C83.7227 7.17215 84.8894 6.87215 86.4494 6.91215V9.27215C85.7694 9.25881 85.296 9.37215 85.0294 9.61215C84.7627 9.85215 84.6294 10.2855 84.6294 10.9121V11.3721H86.5694V13.6721ZM91.1839 7.65215V22.4521H88.3839V7.65215H91.1839ZM98.8703 22.6321C97.8036 22.6321 96.8436 22.3988 95.9903 21.9321C95.137 21.4521 94.4636 20.7788 93.9703 19.9121C93.4903 19.0455 93.2503 18.0455 93.2503 16.9121C93.2503 15.7788 93.497 14.7788 93.9903 13.9121C94.497 13.0455 95.1836 12.3788 96.0503 11.9121C96.917 11.4321 97.8836 11.1921 98.9503 11.1921C100.017 11.1921 100.984 11.4321 101.85 11.9121C102.717 12.3788 103.397 13.0455 103.89 13.9121C104.397 14.7788 104.65 15.7788 104.65 16.9121C104.65 18.0455 104.39 19.0455 103.87 19.9121C103.364 20.7788 102.67 21.4521 101.79 21.9321C100.924 22.3988 99.9503 22.6321 98.8703 22.6321ZM98.8703 20.1921C99.377 20.1921 99.8503 20.0721 100.29 19.8321C100.744 19.5788 101.104 19.2055 101.37 18.7121C101.637 18.2188 101.77 17.6188 101.77 16.9121C101.77 15.8588 101.49 15.0521 100.93 14.4921C100.384 13.9188 99.7103 13.6321 98.9103 13.6321C98.1103 13.6321 97.437 13.9188 96.8903 14.4921C96.357 15.0521 96.0903 15.8588 96.0903 16.9121C96.0903 17.9655 96.3503 18.7788 96.8703 19.3521C97.4036 19.9121 98.0703 20.1921 98.8703 20.1921ZM122.064 11.3721L118.824 22.4521H115.804L113.784 14.7121L111.764 22.4521H108.724L105.464 11.3721H108.304L110.264 19.8121L112.384 11.3721H115.344L117.424 19.7921L119.384 11.3721H122.064Z" fill="white"/>
<defs>
<linearGradient id="paint0_linear_1767_2" x1="31.1857" y1="6.74023" x2="31.1857" y2="8.91" gradientUnits="userSpaceOnUse">
<stop offset="0.22" stop-color="#080538"/>
<stop offset="1" stop-color="#170E9E"/>
</linearGradient>
<linearGradient id="paint1_linear_1767_2" x1="18.1131" y1="1.02539" x2="18.1131" y2="3.05067" gradientUnits="userSpaceOnUse">
<stop offset="0.22" stop-color="#080538"/>
<stop offset="1" stop-color="#170E9E"/>
</linearGradient>
<linearGradient id="paint2_linear_1767_2" x1="23.2289" y1="2.81738" x2="23.2289" y2="4.77021" gradientUnits="userSpaceOnUse">
<stop offset="0.22" stop-color="#080538"/>
<stop offset="1" stop-color="#170E9E"/>
</linearGradient>
<linearGradient id="paint3_linear_1767_2" x1="5.40358" y1="6.81152" x2="5.40358" y2="8.85607" gradientUnits="userSpaceOnUse">
<stop offset="0.22" stop-color="#080538"/>
<stop offset="1" stop-color="#170E9E"/>
</linearGradient>
<linearGradient id="paint4_linear_1767_2" x1="9.77007" y1="4.53809" x2="9.77007" y2="6.35126" gradientUnits="userSpaceOnUse">
<stop offset="0.22" stop-color="#080538"/>
<stop offset="1" stop-color="#170E9E"/>
</linearGradient>
<linearGradient id="paint5_linear_1767_2" x1="29.8372" y1="21.6406" x2="29.8372" y2="23.5927" gradientUnits="userSpaceOnUse">
<stop offset="0.22" stop-color="#080538"/>
<stop offset="1" stop-color="#170E9E"/>
</linearGradient>
<linearGradient id="paint6_linear_1767_2" x1="6.86399" y1="21.709" x2="6.86399" y2="23.5597" gradientUnits="userSpaceOnUse">
<stop offset="0.22" stop-color="#080538"/>
<stop offset="1" stop-color="#170E9E"/>
</linearGradient>
<linearGradient id="paint7_linear_1767_2" x1="13.8321" y1="1.44531" x2="13.8321" y2="3.36207" gradientUnits="userSpaceOnUse">
<stop offset="0.22" stop-color="#080538"/>
<stop offset="1" stop-color="#170E9E"/>
</linearGradient>
<linearGradient id="paint8_linear_1767_2" x1="26.8896" y1="4.64746" x2="26.8896" y2="6.46124" gradientUnits="userSpaceOnUse">
<stop offset="0.22" stop-color="#080538"/>
<stop offset="1" stop-color="#170E9E"/>
</linearGradient>
</defs>
</svg>
